<?xml version="1.0" encoding="UTF-8"?>
<!DOCTYPE svg PUBLIC "-//W3C//DTD SVG 1.1//EN" "http://www.w3.org/Graphics/SVG/1.1/DTD/svg11.dtd">
<svg version="1.1" xmlns="http://www.w3.org/2000/svg" xmlns:xlink="http://www.w3.org/1999/xlink" x="0" y="0" width="1026" height="144" viewBox="0, 0, 1026, 144">
  <g id="Layer_45">
    <g>
      <g>
        <path d="M9.44,19.607 L9.929,20.289 L10.816,21.613 L11.63,22.946 L12.392,24.299 L13.105,25.67 L13.772,27.051 L14.393,28.447 L14.971,29.851 L15.509,31.264 L16.005,32.685 L16.463,34.114 L16.884,35.549 L17.269,36.992 L17.619,38.438 L17.936,39.893 L18.222,41.354 L18.478,42.818 L18.705,44.29 L18.903,45.768 L19.075,47.253 L19.22,48.744 L19.339,50.242 L19.487,52.558 L19.6,55.649 L19.617,58.713 L19.559,61.803 L19.435,64.919 L19.249,68.061 L19.009,71.23 L18.721,74.419 L18.391,77.632 L18.031,80.863 L17.642,84.113 L17.368,87.392 L17.123,90.701 L16.871,94.023 L16.598,97.349 L16.31,100.68 L16.013,104.001 L15.888,107.351 L15.813,110.698 L15.89,114.051 L16,117.38 L16.06,119.058 L16.06,119.058 C15.543,125.599 18.571,131.546 22.822,132.341 C27.073,133.137 30.939,128.479 31.456,121.939 L31.763,120.498 L32.401,117.489 L33.046,114.379 L33.563,111.149 L34.043,107.82 L34.351,104.372 L34.655,100.854 L34.949,97.263 L35.224,93.612 L35.455,89.903 L35.593,86.131 L35.539,82.307 L35.425,78.453 L35.239,74.581 L34.979,70.698 L34.639,66.818 L34.212,62.946 L33.694,59.095 L33.077,55.275 L32.356,51.498 L31.538,47.828 L30.854,45.133 L30.353,43.322 L29.822,41.53 L29.26,39.761 L28.668,38.013 L28.044,36.29 L27.387,34.592 L26.698,32.924 L25.975,31.285 L25.219,29.675 L24.43,28.098 L23.607,26.553 L22.75,25.044 L21.858,23.568 L20.934,22.128 L19.975,20.724 L18.981,19.358 L17.954,18.026 L16.892,16.733 L15.798,15.473 L14.671,14.245 L13.532,13.06 L12.976,12.509 C11.701,11.007 9.877,11.378 8.901,13.338 C7.924,15.298 8.166,18.105 9.44,19.607 L9.44,19.607" fill="#000000"/>
        <path d="M15.101,23.282 L16.259,23.249 L18.514,23.207 L20.708,23.211 L22.852,23.266 L24.945,23.351 L26.988,23.464 L28.981,23.605 L30.923,23.813 L32.815,24.047 L34.658,24.307 L36.451,24.593 L38.193,24.912 L39.884,25.275 L41.526,25.662 L43.119,26.071 L44.661,26.502 L46.152,26.96 L47.594,27.456 L48.985,27.97 L50.327,28.503 L51.617,29.054 L52.86,29.622 L54.053,30.206 L55.195,30.805 L56.289,31.419 L57.331,32.052 L58.323,32.699 L59.267,33.357 L60.159,34.022 L61.003,34.696 L61.797,35.376 L62.543,36.06 L63.238,36.745 L63.887,37.433 L64.486,38.118 L65.037,38.799 L65.542,39.476 L66.001,40.144 L66.417,40.803 L66.79,41.44 L67.124,42.067 L67.416,42.678 L67.67,43.272 L67.888,43.847 L68.072,44.406 L68.225,44.946 L68.349,45.467 L68.447,45.972 L68.521,46.462 L68.576,46.935 L68.637,47.384 L68.682,47.83 L68.711,48.274 L68.727,48.722 L68.729,49.178 L68.719,49.645 L68.696,50.127 L68.695,50.624 L68.688,51.145 L68.665,51.69 L68.627,52.27 L68.572,52.878 L68.498,53.519 L68.405,54.191 L68.292,54.892 L68.156,55.628 L67.887,56.892 L67.448,58.623 L66.932,60.356 L66.312,62.187 L65.587,64.107 L64.755,66.105 L63.818,68.17 L62.774,70.294 L61.628,72.465 L60.378,74.679 L59.028,76.927 L57.58,79.201 L56.083,81.569 L54.533,84.028 L52.953,86.615 L51.284,89.228 L49.439,91.687 L47.448,94.023 L45.36,96.311 L43.192,98.563 L40.946,100.79 L38.637,102.999 L36.271,105.211 L33.867,107.463 L31.49,109.928 L29.12,112.571 L26.754,115.401 L24.369,118.371 L21.936,121.378 L19.396,124.235 L16.72,126.811 L15.36,128.003 L15.36,128.003 C13.037,129.493 11.94,133.597 12.908,137.171 C13.877,140.744 16.545,142.433 18.867,140.943 L20.488,140.221 L23.706,138.877 L26.962,137.693 L30.224,136.545 L33.43,135.251 L36.544,133.716 L39.539,131.898 L42.407,129.812 L45.125,127.431 L47.751,124.932 L50.3,122.36 L52.774,119.742 L55.183,117.09 L57.525,114.421 L59.811,111.755 L62.086,109.172 L64.374,106.71 L66.586,104.195 L68.656,101.531 L70.603,98.76 L72.42,95.888 L74.148,92.988 L75.787,90.057 L77.334,87.094 L78.785,84.099 L80.138,81.069 L81.388,78.001 L82.532,74.889 L83.562,71.73 L84.473,68.52 L85.234,65.362 L85.714,62.999 L86.003,61.336 L86.255,59.656 L86.467,57.965 L86.639,56.26 L86.767,54.542 L86.851,52.816 L86.888,51.076 L86.876,49.333 L86.809,47.59 L86.654,45.854 L86.447,44.127 L86.188,42.413 L85.876,40.718 L85.511,39.045 L85.094,37.4 L84.626,35.787 L84.083,34.226 L83.491,32.711 L82.854,31.242 L82.172,29.82 L81.448,28.447 L80.685,27.127 L79.883,25.857 L79.045,24.639 L78.173,23.473 L77.268,22.358 L76.328,21.291 L75.357,20.281 L74.353,19.32 L73.32,18.405 L72.255,17.535 L71.162,16.708 L70.041,15.926 L68.888,15.184 L67.707,14.482 L66.495,13.819 L65.252,13.195 L63.977,12.607 L62.672,12.057 L61.335,11.543 L59.964,11.062 L58.562,10.61 L57.125,10.193 L55.656,9.81 L54.15,9.461 L52.608,9.147 L51.03,8.866 L49.416,8.62 L47.765,8.408 L46.076,8.213 L44.35,8.046 L42.585,7.913 L40.781,7.814 L38.935,7.749 L37.049,7.699 L35.124,7.673 L33.156,7.682 L31.146,7.726 L29.093,7.804 L26.997,7.878 L24.857,7.987 L22.672,8.131 L20.443,8.31 L18.168,8.502 L15.858,8.716 L14.697,8.835 C14.697,8.835 14.697,8.835 14.697,8.835 C12.104,9.006 10.092,12.379 10.203,16.369 C10.315,20.358 12.507,23.453 15.101,23.282 L15.101,23.282" fill="#000000"/>
      </g>
      <path d="M101.073,57.598 L100.404,57.786 L99.061,58.186 L97.752,58.603 L96.492,59.031 L95.279,59.47 L94.112,59.921 L92.991,60.384 L91.913,60.859 L90.878,61.347 L89.884,61.848 L88.929,62.365 L88.012,62.898 L87.131,63.449 L86.286,64.018 L85.475,64.609 L84.694,65.225 L83.945,65.869 L83.224,66.545 L82.529,67.259 L81.862,68.016 L81.221,68.823 L80.606,69.688 L80.021,70.618 L79.466,71.626 L78.949,72.713 L78.478,73.889 L78.061,75.157 L77.711,76.509 L77.365,78.432 L77.161,81.196 L77.311,84.218 L77.806,87.046 L78.56,89.564 L79.483,91.756 L80.51,93.662 L81.617,95.329 L82.779,96.815 L83.989,98.16 L85.256,99.371 L86.568,100.489 L87.933,101.498 L89.342,102.424 L90.802,103.248 L92.302,103.993 L93.839,104.664 L95.408,105.267 L97.004,105.813 L98.623,106.308 L100.261,106.749 L101.913,107.144 L103.576,107.487 L105.248,107.773 L106.92,108.015 L108.591,108.199 L110.257,108.321 L111.915,108.382 L113.559,108.39 L115.187,108.329 L116.796,108.196 L118.381,107.987 L119.939,107.698 L121.472,107.333 L122.976,106.874 L124.447,106.313 L125.889,105.636 L126.999,105.016 L127.751,104.538 L128.446,104.05 L129.133,103.517 L129.81,102.935 L130.475,102.301 L131.13,101.609 L131.769,100.855 L132.39,100.034 L132.991,99.141 L133.564,98.176 L134.105,97.135 L134.607,96.018 L135.063,94.828 L135.466,93.57 L135.812,92.257 L136.097,90.895 L136.327,89.499 L136.488,88.078 L136.587,86.641 L136.634,85.196 L136.617,83.753 L136.559,82.31 L136.447,80.871 L136.298,79.434 L136.104,78 L135.96,77.16 L135.96,77.16 C135.936,77.06 135.911,76.961 135.885,76.862 L135.885,76.862 L135.801,76.282 L135.458,74.617 L134.982,72.825 L134.424,71.094 L133.781,69.448 L133.065,67.886 L132.292,66.414 L131.468,65.032 L130.589,63.763 L129.672,62.597 L128.728,61.517 L127.763,60.52 L126.773,59.625 L125.769,58.805 L124.754,58.05 L123.728,57.378 L122.697,56.763 L121.66,56.196 L120.619,55.689 L119.574,55.232 L118.044,54.627 L115.972,53.95 L113.866,53.369 L111.771,52.905 L108.692,52.335 L106.635,52.019 L106.635,52.019 C102.119,51.1 97.974,55.988 97.376,62.936 C96.779,69.883 99.956,76.26 104.472,77.179 L106.344,77.661 L109.106,78.37 L110.837,78.853 L112.479,79.325 L114.054,79.835 L115.18,80.223 L115.862,80.484 L116.512,80.745 L117.126,80.997 L117.702,81.256 L118.237,81.516 L118.737,81.756 L119.196,81.997 L119.615,82.231 L120.003,82.435 L120.353,82.632 L120.667,82.821 L120.956,82.991 L121.232,83.132 L121.49,83.273 L121.732,83.416 L121.971,83.571 L122.217,83.739 L122.465,83.95 L122.762,84.393 L122.966,84.908 L122.891,84.61 L122.956,84.64 L123.126,84.908 L123.267,85.123 L123.374,85.288 L123.464,85.399 L123.527,85.462 L123.587,85.474 L123.633,85.448 L123.676,85.39 L123.725,85.311 L123.769,85.219 L123.813,85.13 L123.855,85.052 L123.893,84.996 L123.921,84.969 L123.935,84.974 L123.927,85.012 L123.896,85.078 L123.835,85.175 L123.744,85.296 L123.621,85.436 L123.464,85.595 L123.274,85.764 L123.051,85.942 L122.795,86.125 L122.557,86.278 L122.109,86.533 L121.349,86.888 L120.486,87.209 L119.533,87.487 L118.5,87.716 L117.393,87.882 L116.227,87.994 L115.009,88.05 L113.747,88.05 L112.45,87.994 L111.125,87.871 L109.78,87.692 L108.424,87.461 L107.062,87.178 L105.706,86.834 L104.359,86.443 L103.03,86.006 L101.727,85.519 L100.458,84.995 L99.23,84.433 L98.051,83.843 L96.927,83.24 L95.863,82.634 L94.871,82.033 L93.949,81.465 L93.117,80.912 L92.376,80.406 L91.747,79.933 L91.23,79.54 L90.843,79.234 L90.593,79.061 L90.468,79.082 L90.45,79.348 L90.492,79.903 L90.511,80.733 L90.435,81.726 L90.265,82.435 L90.123,82.801 L89.997,83.109 L89.875,83.328 L89.772,83.451 L89.698,83.481 L89.662,83.428 L89.673,83.295 L89.734,83.095 L89.849,82.834 L90.019,82.521 L90.246,82.165 L90.531,81.771 L90.873,81.344 L91.272,80.89 L91.73,80.41 L92.244,79.911 L92.815,79.394 L93.443,78.862 L94.127,78.316 L94.869,77.758 L95.668,77.19 L96.522,76.613 L97.435,76.028 L98.403,75.436 L99.43,74.837 L100.514,74.233 L101.656,73.624 L102.872,73.005 L103.523,72.686 C103.523,72.686 103.523,72.686 103.523,72.686 C106.232,71.645 107.878,67.423 107.202,63.257 C106.525,59.091 103.781,56.557 101.073,57.598 L101.073,57.598" fill="#000000"/>
      <g>
        <path d="M137.47,31.624 L137.35,32.311 L137.092,34.009 L136.851,35.856 L136.629,37.766 L136.43,39.741 L136.25,41.778 L136.093,43.875 L135.958,46.028 L135.847,48.231 L135.758,50.482 L135.7,52.772 L135.667,55.097 L135.66,58.59 L135.757,63.324 L135.921,66.975 L136.082,69.424 L136.269,71.821 L136.498,74.197 L136.763,76.557 L137.074,78.884 L137.427,81.181 L137.829,83.438 L138.278,85.65 L138.784,87.813 L139.344,89.916 L139.968,91.961 L140.659,93.934 L141.42,95.834 L142.261,97.654 L143.204,99.373 L143.8,100.361 L143.8,100.361 C146.557,105.796 151.656,106.764 155.189,102.522 C158.722,98.281 159.351,90.436 156.594,85.001 L156.614,84.853 L156.433,84.12 L156.193,83.258 L155.911,82.262 L155.601,81.138 L155.264,79.901 L154.906,78.551 L154.535,77.105 L154.151,75.567 L153.762,73.946 L153.367,72.255 L152.975,70.494 L152.581,68.685 L152.196,66.823 L151.813,64.928 L151.45,63.046 L150.914,60.16 L150.242,56.18 L149.783,53.201 L149.508,51.269 L149.257,49.366 L149.024,47.501 L148.818,45.683 L148.638,43.921 L148.486,42.225 L148.363,40.607 L148.27,39.078 L148.207,37.649 L148.176,36.339 L148.182,35.076 L148.213,34.359 C148.703,29.795 146.696,25.483 143.73,24.728 C140.763,23.973 137.961,27.06 137.47,31.624 L137.47,31.624" fill="#000000"/>
        <path d="M150.212,64.258 L150.614,63.984 L151.332,63.528 L152.002,63.123 L152.644,62.731 L153.259,62.359 L153.842,61.978 L154.39,61.584 L154.897,61.154 L155.337,60.6 L155.724,59.953 L156.303,58.909 L157.092,57.759 L157.898,57.03 L158.695,56.527 L159.459,56.191 L160.172,55.944 L160.842,55.794 L161.462,55.724 L162.039,55.715 L162.574,55.759 L163.072,55.862 L163.538,56.016 L163.977,56.209 L164.396,56.437 L164.799,56.702 L165.191,57.017 L165.573,57.37 L165.954,57.763 L166.333,58.2 L166.711,58.686 L167.089,59.225 L167.468,59.812 L167.848,60.451 L168.228,61.139 L168.608,61.88 L168.986,62.668 L169.361,63.505 L169.733,64.39 L170.1,65.319 L170.461,66.291 L170.815,67.299 L171.168,68.341 L171.514,69.414 L172.041,71.142 L172.718,73.484 L173.349,75.831 L173.968,78.217 L174.585,80.605 L175.191,82.982 L175.815,85.308 L176.285,86.988 L176.603,88.079 L176.936,89.166 L177.277,90.227 L177.633,91.25 L178.005,92.241 L178.387,93.192 L178.784,94.108 L179.214,94.97 L179.666,95.783 L180.145,96.548 L180.656,97.259 L180.938,97.618 L180.938,97.618 C182.163,102.918 185.948,105.687 189.393,103.803 C192.838,101.918 194.638,96.095 193.413,90.795 L193.525,90.418 L193.686,89.568 L193.799,88.654 L193.869,87.677 L193.9,86.645 L193.882,85.567 L193.83,84.433 L193.749,83.252 L193.632,82.023 L193.48,80.758 L193.299,79.452 L193.08,78.089 L192.702,75.986 L192.113,73.111 L191.403,70.154 L190.596,67.124 L189.678,64.057 L188.652,60.968 L187.545,57.938 L186.648,55.711 L186.002,54.192 L185.329,52.687 L184.62,51.199 L183.883,49.732 L183.113,48.284 L182.311,46.861 L181.473,45.465 L180.598,44.103 L179.685,42.78 L178.731,41.5 L177.736,40.269 L176.697,39.094 L175.613,37.983 L174.486,36.938 L173.315,35.968 L172.099,35.087 L170.839,34.301 L169.541,33.622 L168.207,33.043 L166.84,32.584 L165.443,32.25 L164.024,32.047 L162.585,31.968 L161.132,32.01 L159.667,32.186 L158.194,32.495 L156.715,32.922 L155.225,33.46 L153.731,34.119 L152.213,34.83 L150.647,35.54 L149.006,36.059 L147.725,36.421 L146.853,36.788 L146.02,37.308 L145.237,38.014 L144.482,38.819 L143.746,39.701 L143.027,40.655 L142.32,41.655 L141.625,42.708 L140.962,43.776 L140.667,44.289 C140.667,44.289 140.667,44.289 140.667,44.289 C137.083,48.344 136.314,56.101 138.95,61.616 C141.586,67.13 146.628,68.313 150.212,64.258 L150.212,64.258" fill="#000000"/>
        <path d="M180.523,66.178 L181.345,65.773 L182.95,64.994 L184.518,64.246 L186.052,63.525 L187.553,62.831 L189.018,62.144 L190.45,61.483 L191.851,60.848 L193.217,60.228 L194.547,59.613 L195.846,59.025 L197.112,58.456 L198.342,57.892 L199.543,57.355 L200.71,56.827 L201.845,56.316 L202.949,55.815 L204.023,55.339 L205.065,54.874 L206.079,54.436 L207.063,54.024 L208.019,53.631 L208.945,53.259 L209.843,52.912 L210.713,52.591 L211.556,52.294 L212.37,52.022 L213.156,51.772 L213.913,51.542 L214.642,51.335 L215.343,51.151 L216.017,50.99 L216.663,50.851 L217.278,50.734 L217.867,50.637 L218.426,50.561 L218.956,50.503 L219.457,50.463 L219.928,50.441 L220.37,50.435 L220.782,50.445 L221.164,50.47 L221.514,50.507 L221.835,50.555 L222.122,50.612 L222.38,50.676 L222.606,50.745 L222.799,50.816 L223.096,50.951 L223.376,51.127 L223.483,51.233 L223.496,51.28 L223.438,51.252 L223.34,51.152 L223.234,51.002 L223.144,50.838 L223.085,50.709 L223.057,50.661 L223.052,50.725 L223.056,50.924 L223.055,51.267 L223.036,51.752 L222.988,52.367 L222.902,53.105 L222.773,53.953 L222.6,54.899 L222.383,55.933 L222.121,57.047 L221.808,58.229 L221.448,59.466 L220.993,60.723 L220.494,62.019 L219.946,63.348 L219.357,64.71 L218.735,66.101 L218.078,67.52 L217.392,68.962 L216.677,70.427 L215.548,72.684 L213.974,75.736 L212.342,78.814 L210.677,81.947 L209.17,85.327 L209.251,88 L209.251,88 C207.323,91.787 207.756,97.262 210.218,100.228 C212.679,103.194 216.238,102.528 218.166,98.74 C218.166,98.74 218.166,98.74 218.166,98.74 L219.943,98.08 L221.788,94.755 L223.399,91.161 L224.935,87.521 L226.391,83.897 L227.428,81.195 L228.099,79.385 L228.747,77.581 L229.37,75.786 L229.969,74.002 L230.539,72.23 L231.085,70.47 L231.61,68.728 L232.105,67 L232.619,65.311 L233.098,63.628 L233.544,61.943 L233.947,60.25 L234.303,58.543 L234.607,56.816 L234.854,55.061 L235.036,53.271 L235.141,51.441 L235.153,49.565 L235.056,47.644 L234.832,45.691 L234.463,43.733 L233.938,41.807 L233.253,39.96 L232.419,38.248 L231.457,36.709 L230.395,35.371 L229.26,34.24 L228.071,33.304 L226.904,32.577 L226.013,32.131 L225.366,31.86 L224.711,31.625 L224.048,31.423 L223.373,31.252 L222.691,31.111 L221.995,30.998 L221.29,30.913 L220.572,30.854 L219.841,30.82 L219.095,30.811 L218.335,30.826 L217.56,30.866 L216.769,30.931 L215.961,31.02 L215.135,31.131 L214.291,31.266 L213.43,31.423 L212.548,31.604 L211.647,31.807 L210.725,32.034 L209.783,32.288 L208.82,32.568 L207.836,32.871 L206.83,33.198 L205.801,33.549 L204.748,33.925 L203.674,34.33 L202.576,34.767 L201.455,35.229 L200.31,35.717 L199.143,36.245 L197.952,36.801 L196.738,37.401 L195.501,38.037 L194.243,38.719 L192.958,39.43 L191.653,40.189 L190.323,40.987 L188.969,41.813 L187.592,42.691 L186.192,43.613 L184.765,44.566 L183.312,45.552 L181.836,46.589 L180.332,47.66 L178.802,48.763 L177.248,49.895 L176.468,50.469 C173.648,52.192 172.27,57.106 173.39,61.443 C174.51,65.781 177.704,67.901 180.523,66.178 L180.523,66.178" fill="#000000"/>
      </g>
      <path d="M245.71,90.446 L246.05,90.202 L246.48,89.939 L246.863,89.768 L247.291,89.612 L247.764,89.471 L248.285,89.356 L248.849,89.276 L249.453,89.217 L250.096,89.181 L250.776,89.185 L251.885,89.231 L253.438,89.382 L255.055,89.606 L256.756,89.859 L258.53,90.151 L260.374,90.402 L262.281,90.57 L263.8,90.644 L264.866,90.634 L265.91,90.577 L266.975,90.458 L268.064,90.266 L269.174,89.996 L270.311,89.636 L271.466,89.165 L272.166,88.813 L272.166,88.813 C272.575,88.556 272.969,88.248 273.345,87.892 L273.345,87.892 L273.383,87.866 L276.065,83.753 L277.286,78.203 L277.227,74.784 L276.928,72.705 L276.613,71.256 L276.315,70.116 L276.026,69.129 L275.715,68.239 L275.397,67.388 L275.069,66.552 L274.727,65.717 L274.361,64.885 L273.957,64.066 L273.533,63.237 L273.09,62.396 L272.628,61.541 L272.146,60.675 L271.406,59.388 L270.284,57.718 L268.947,56.193 L267.601,54.6 L266.26,52.925 L264.881,51.254 L263.451,49.632 L261.974,48.062 L260.453,46.564 L258.878,45.167 L257.61,44.159 L256.715,43.514 L255.852,42.951 L254.97,42.429 L254.063,41.955 L253.13,41.538 L252.17,41.185 L251.177,40.906 L250.153,40.711 L249.095,40.616 L248.007,40.635 L246.89,40.785 L245.754,41.083 L244.609,41.543 L243.472,42.176 L242.359,42.985 L241.291,43.964 L240.281,45.107 L239.347,46.39 L238.498,47.8 L237.735,49.316 L237.058,50.915 L236.464,52.587 L235.946,54.325 L235.499,56.122 L235.117,57.981 L234.93,59.06 L234.93,59.06 C234.918,59.119 234.907,59.178 234.896,59.238 L234.896,59.238 L234.681,60.784 L234.261,64.041 L233.91,67.346 L233.579,70.618 L233.286,73.858 L233.014,77.055 L232.848,79.481 L232.751,81.113 L232.682,82.689 L232.633,84.258 L232.598,85.822 L232.591,87.384 L232.615,88.936 L232.672,90.487 L232.763,92.031 L232.885,93.574 L233.044,95.111 L233.247,96.643 L233.495,98.167 L233.793,99.683 L234.144,101.187 L234.552,102.676 L235.019,104.141 L235.55,105.58 L236.147,106.98 L236.811,108.334 L237.541,109.635 L238.335,110.869 L239.19,112.029 L240.105,113.108 L241.074,114.097 L242.092,114.991 L243.156,115.78 L244.261,116.465 L245.399,117.049 L246.568,117.536 L247.766,117.928 L248.99,118.226 L250.242,118.42 L251.517,118.524 L252.818,118.544 L254.146,118.483 L255.502,118.338 L256.884,118.089 L258.296,117.761 L259.739,117.356 L261.215,116.864 L262.718,116.26 L264.259,115.576 L265.832,114.813 L267.434,113.911 L269.073,112.925 L270.747,111.843 L272.448,110.617 L274.184,109.285 L275.945,107.813 L277.735,106.198 L279.547,104.43 L280.475,103.473 L280.475,103.473 C282.944,101.763 284.044,97.297 282.932,93.499 C281.821,89.7 278.918,88.007 276.449,89.718 C276.449,89.718 276.449,89.718 276.449,89.718 L275.463,90.088 L273.532,90.843 L271.691,91.581 L269.933,92.296 L268.259,92.984 L266.659,93.616 L265.137,94.231 L263.686,94.785 L262.302,95.269 L260.992,95.741 L259.751,96.141 L258.572,96.475 L257.463,96.777 L256.418,97.024 L255.438,97.21 L254.523,97.338 L253.673,97.438 L252.886,97.49 L252.163,97.495 L251.502,97.459 L250.905,97.39 L250.365,97.305 L249.884,97.196 L249.456,97.068 L249.078,96.924 L248.747,96.771 L248.454,96.617 L248.192,96.462 L247.957,96.301 L247.741,96.131 L247.539,95.945 L247.347,95.74 L247.161,95.511 L246.977,95.247 L246.794,94.942 L246.609,94.594 L246.426,94.192 L246.247,93.735 L246.072,93.219 L245.904,92.642 L245.745,92.003 L245.598,91.305 L245.463,90.548 L245.345,89.735 L245.249,88.864 L245.171,87.942 L245.11,86.968 L245.067,85.953 L245.044,84.891 L245.052,83.788 L245.084,82.649 L245.132,81.526 L245.26,79.748 L245.52,77.222 L245.905,74.624 L246.388,71.965 L246.974,69.266 L247.605,66.468 L247.955,64.974 L247.921,65.152 L248.006,64.858 L248.206,64.131 L248.392,63.55 L248.555,63.113 L248.688,62.808 L248.783,62.621 L248.833,62.538 L248.838,62.53 L248.795,62.571 L248.713,62.643 L248.607,62.717 L248.489,62.78 L248.376,62.822 L248.284,62.841 L248.227,62.841 L248.214,62.832 L248.251,62.826 L248.339,62.834 L248.478,62.865 L248.665,62.928 L248.898,63.03 L249.172,63.175 L249.48,63.364 L249.822,63.601 L250.19,63.888 L250.53,64.179 L251.117,64.722 L252.011,65.643 L252.939,66.709 L253.876,67.906 L254.808,69.212 L255.723,70.586 L256.592,72.032 L257.357,73.592 L258.016,75.21 L258.757,76.631 L259.318,77.602 L259.654,78.202 L259.967,78.777 L260.256,79.323 L260.518,79.833 L260.752,80.301 L260.974,80.696 L261.167,81.025 L261.321,81.284 L261.429,81.452 L261.485,81.503 L261.505,81.371 L261.452,80.997 L261.319,80.217 L261.136,78.706 L261.124,75.749 L262.323,70.549 L264.91,66.669 L264.874,66.714 L266.052,65.793 L266.065,65.873 L265.808,66.178 L265.487,66.48 L265.098,66.767 L264.649,67.035 L264.14,67.286 L263.578,67.518 L263.009,67.725 L262.025,68.004 L260.521,68.266 L258.891,68.461 L257.154,68.616 L255.332,68.714 L253.438,68.827 L251.518,68.979 L250.062,69.137 L249.057,69.283 L248.037,69.452 L247.006,69.671 L245.965,69.949 L244.912,70.279 L243.848,70.68 L242.778,71.169 L241.705,71.756 L240.724,72.371 L240.376,72.613 C237.175,74.879 235.775,80.708 237.247,85.632 C238.72,90.557 242.509,92.712 245.71,90.446 L245.71,90.446" fill="#000000"/>
      <path d="M324.226,39.945 L323.553,39.46 L322.167,38.475 L320.807,37.494 L319.49,36.533 L318.207,35.612 L316.97,34.684 L315.774,33.763 L314.617,32.84 L313.501,31.893 L312.427,30.904 L311.392,29.859 L310.381,28.798 L309.377,27.761 L308.367,26.838 L307.343,26.042 L306.306,25.429 L305.264,24.959 L304.227,24.596 L303.199,24.337 L302.181,24.163 L301.18,24.07 L300.193,24.036 L299.224,24.057 L298.27,24.134 L297.332,24.26 L296.409,24.445 L295.502,24.689 L294.611,24.995 L293.737,25.364 L292.88,25.798 L292.045,26.299 L291.228,26.869 L290.436,27.51 L289.668,28.221 L288.929,29.001 L288.223,29.855 L287.553,30.783 L286.924,31.78 L286.34,32.846 L285.807,33.974 L285.327,35.159 L284.905,36.395 L284.544,37.672 L284.246,38.983 L284.01,40.319 L283.836,41.67 L283.725,43.029 L283.675,44.39 L283.686,45.743 L283.753,47.088 L283.94,48.917 L284.354,51.359 L284.971,53.852 L285.756,56.235 L286.696,58.503 L287.78,60.651 L288.728,62.262 L289.417,63.313 L289.797,63.855 L289.797,63.855 C290.08,64.262 290.387,64.629 290.713,64.951 L290.713,64.951 L291.108,65.333 L291.982,66.15 L292.866,66.935 L293.731,67.663 L294.574,68.333 L295.397,68.952 L296.197,69.523 L296.971,70.051 L298.068,70.753 L299.463,71.585 L300.784,72.334 L302.006,73.018 L303.137,73.675 L304.194,74.339 L304.927,74.845 L305.391,75.189 L305.886,75.578 L306.388,75.998 L306.901,76.455 L307.426,76.952 L307.971,77.501 L308.537,78.104 L309.129,78.77 L309.747,79.506 L310.396,80.319 L311.076,81.214 L311.403,81.658 L311.288,81.497 L311.498,81.797 L311.62,82.014 L311.628,82.073 L311.62,82.107 L311.604,82.122 L311.585,82.128 L311.566,82.132 L311.551,82.147 L311.539,82.183 L311.528,82.242 L311.516,82.334 L311.501,82.462 L311.452,82.88 L311.33,83.477 L311.162,84.043 L311.024,84.419 L310.925,84.67 L310.77,85.047 L310.596,85.433 L310.403,85.822 L310.19,86.213 L309.959,86.602 L309.71,86.984 L309.445,87.358 L309.164,87.72 L308.869,88.067 L308.56,88.398 L308.241,88.708 L307.909,88.998 L307.567,89.266 L307.218,89.509 L306.861,89.727 L306.496,89.919 L306.126,90.083 L305.75,90.218 L305.367,90.325 L304.978,90.403 L304.585,90.448 L304.184,90.463 L303.778,90.444 L303.363,90.391 L302.94,90.302 L302.507,90.175 L302.062,90.008 L301.604,89.796 L301.134,89.538 L300.649,89.228 L300.149,88.862 L299.633,88.436 L299.1,87.943 L298.552,87.382 L297.987,86.749 L297.407,86.037 L296.814,85.242 L296.206,84.357 L295.584,83.383 L294.949,82.317 L294.303,81.149 L293.647,79.881 L292.973,78.517 L292.289,77.045 L291.96,76.336 L291.96,76.336 C290.234,72.103 286.604,70.826 283.853,73.482 C281.101,76.138 280.271,81.723 281.997,85.955 L282.42,87.087 L283.25,89.136 L284.106,91.084 L284.992,92.924 L285.899,94.663 L286.827,96.308 L287.777,97.852 L288.746,99.299 L289.734,100.651 L290.739,101.908 L291.76,103.07 L292.797,104.133 L293.847,105.099 L294.911,105.969 L295.984,106.743 L297.065,107.419 L298.152,107.999 L299.241,108.481 L300.33,108.868 L301.417,109.159 L302.498,109.357 L303.569,109.464 L304.631,109.483 L305.677,109.417 L306.709,109.268 L307.719,109.041 L308.711,108.739 L309.681,108.364 L310.629,107.921 L311.549,107.414 L312.445,106.845 L313.316,106.217 L314.157,105.535 L314.971,104.801 L315.757,104.016 L316.513,103.185 L317.24,102.309 L317.937,101.389 L318.602,100.429 L319.237,99.428 L319.839,98.389 L320.409,97.312 L320.945,96.198 L321.445,95.047 L321.909,93.862 L322.37,92.528 L322.959,90.492 L323.543,87.802 L323.91,85.13 L324.047,83.108 L324.067,81.623 L324.017,80.119 L323.892,78.602 L323.69,77.086 L323.406,75.579 L323.039,74.093 L322.589,72.648 L322.059,71.254 L321.453,69.925 L320.775,68.673 L320.123,67.633 L319.912,67.326 L319.912,67.326 C319.874,67.272 319.836,67.218 319.797,67.165 L319.797,67.165 L319.313,66.497 L318.41,65.295 L317.523,64.171 L316.652,63.119 L315.795,62.139 L314.952,61.227 L314.124,60.38 L313.307,59.595 L312.507,58.872 L311.722,58.204 L310.953,57.589 L310.172,57.003 L309.066,56.229 L307.708,55.356 L306.442,54.597 L305.258,53.911 L304.14,53.259 L303.036,52.583 L302.202,52.036 L301.658,51.658 L301.109,51.253 L300.55,50.817 L299.975,50.343 L299.382,49.827 L298.766,49.261 L298.094,48.608 L297.697,48.209 L298.614,49.304 L298.511,49.155 L298.282,48.81 L297.968,48.3 L297.584,47.584 L297.299,46.963 L297.101,46.451 L296.976,46.065 L296.885,45.661 L296.848,45.39 L296.84,45.356 L296.833,45.349 L296.825,45.373 L296.813,45.419 L296.795,45.483 L296.775,45.562 L296.747,45.648 L296.715,45.733 L296.679,45.815 L296.642,45.884 L296.607,45.938 L296.578,45.974 L296.56,45.989 L296.556,45.981 L296.571,45.952 L296.609,45.903 L296.674,45.841 L296.768,45.767 L296.893,45.684 L297.052,45.595 L297.246,45.505 L297.475,45.419 L297.741,45.34 L298.044,45.273 L298.385,45.223 L298.764,45.192 L299.178,45.192 L299.632,45.22 L300.118,45.279 L300.643,45.365 L301.203,45.462 L301.804,45.567 L302.447,45.663 L303.136,45.75 L303.882,45.794 L304.691,45.758 L305.564,45.7 L306.494,45.635 L307.466,45.657 L308.463,45.808 L309.471,46.128 L310.487,46.609 L311.511,47.233 L312.544,47.982 L313.585,48.848 L314.628,49.849 L315.685,50.939 L316.747,52.141 L317.831,53.473 L318.41,54.198 C320.969,56.669 324.345,55.481 325.951,51.545 C327.557,47.609 326.785,42.416 324.226,39.945 L324.226,39.945" fill="#000000"/>
      <g>
        <path d="M338.091,46.023 L338.228,46.488 L338.322,47.018 L338.356,47.457 L338.385,47.96 L338.407,48.525 L338.417,49.157 L338.417,49.853 L338.404,50.612 L338.376,51.432 L338.332,52.308 L338.273,53.24 L338.198,54.223 L338.107,55.255 L338.002,56.332 L337.816,58.073 L337.524,60.49 L337.191,62.992 L336.644,66.986 L335.873,72.547 L335.332,76.904 L335.102,79.951 L334.979,83.023 L334.918,86.135 L334.92,88.567 L334.951,90.247 L335.008,91.864 L335.094,93.496 L335.214,95.143 L335.372,96.807 L335.573,98.484 L335.823,100.177 L336.127,101.887 L336.493,103.606 L336.928,105.333 L337.438,107.061 L338.033,108.782 L338.715,110.476 L339.492,112.135 L340.363,113.732 L341.327,115.252 L342.38,116.673 L343.514,117.978 L344.72,119.152 L345.985,120.187 L347.299,121.076 L348.653,121.823 L350.04,122.431 L351.452,122.904 L352.889,123.252 L354.347,123.482 L355.831,123.601 L356.682,123.623 L356.682,123.623 C361.707,123.708 365.826,117.51 365.881,109.778 C365.937,102.047 361.908,95.71 356.882,95.625 L356.647,95.629 L356.048,95.604 L355.539,95.551 L355.122,95.479 L354.789,95.401 L354.538,95.327 L354.357,95.268 L354.237,95.23 L354.166,95.219 L354.129,95.234 L354.114,95.269 L354.105,95.313 L354.093,95.353 L354.07,95.371 L354.033,95.355 L353.978,95.282 L353.909,95.147 L353.826,94.936 L353.735,94.642 L353.64,94.263 L353.544,93.8 L353.453,93.252 L353.368,92.621 L353.293,91.915 L353.229,91.132 L353.178,90.28 L353.142,89.362 L353.119,88.458 L353.11,86.933 L353.149,84.636 L353.232,82.173 L353.294,79.591 L353.293,75.389 L353.31,69.479 L353.3,64.956 L353.254,61.874 L353.166,58.819 L353.061,56.547 L352.971,54.998 L352.862,53.449 L352.73,51.899 L352.573,50.349 L352.388,48.799 L352.172,47.251 L351.921,45.705 L351.63,44.163 L351.293,42.627 L350.911,41.098 L350.472,39.584 L349.975,38.087 L349.469,36.766 L349.28,36.339 C347.542,31.585 343.628,29.899 340.538,32.574 C337.448,35.248 336.352,41.27 338.091,46.023 L338.091,46.023" fill="#000000"/>
        <path d="M333.26,75.704 L333.724,75.822 L334.9,75.993 L336.158,76.076 L337.416,76.069 L338.669,75.993 L339.92,75.846 L341.166,75.644 L342.408,75.385 L343.643,75.083 L344.872,74.737 L346.676,74.168 L349.067,73.293 L351.437,72.317 L353.745,71.284 L355.973,70.222 L358.108,69.156 L360.13,68.106 L361.536,67.36 L362.405,66.869 L363.266,66.39 L364.078,65.907 L364.847,65.423 L365.564,64.89 L366.239,64.377 L366.859,63.753 L367.081,63.404 L367.081,63.404 C370.883,62.796 373.645,57.561 373.249,51.712 C372.854,45.863 369.452,41.614 365.65,42.222 C365.65,42.222 365.65,42.222 365.65,42.222 L364.949,42.021 L363.694,41.788 L362.455,41.785 L361.222,41.874 L360.008,42.113 L358.807,42.447 L357.626,42.867 L356.428,43.351 L354.692,44.188 L352.461,45.428 L350.288,46.79 L348.174,48.225 L346.127,49.682 L344.151,51.122 L342.224,52.515 L340.821,53.506 L339.933,54.118 L339.069,54.696 L338.233,55.232 L337.426,55.729 L336.65,56.176 L335.907,56.583 L335.199,56.937 L334.527,57.249 L333.81,57.51 L333.342,57.618 C333.342,57.618 333.342,57.618 333.342,57.618 C330.096,57.583 327.446,61.604 327.423,66.598 C327.401,71.592 330.014,75.669 333.26,75.704 L333.26,75.704" fill="#000000"/>
      </g>
      <path d="M430.027,49.983 L428.959,50.207 L426.835,50.762 L424.779,51.394 L422.81,52.093 L420.932,52.865 L419.132,53.675 L417.418,54.548 L415.784,55.474 L414.223,56.439 L412.734,57.447 L411.327,58.523 L409.985,59.647 L408.713,60.82 L407.502,62.051 L406.362,63.353 L405.289,64.737 L404.281,66.199 L403.339,67.753 L402.469,69.408 L401.677,71.176 L400.985,73.066 L400.397,75.079 L399.93,77.2 L399.598,79.417 L399.414,81.7 L399.388,84.017 L399.521,86.322 L399.818,88.58 L400.255,90.753 L400.816,92.822 L401.483,94.774 L402.24,96.606 L403.074,98.32 L403.973,99.923 L404.936,101.415 L405.949,102.809 L407.011,104.122 L408.118,105.348 L409.272,106.505 L410.465,107.596 L411.703,108.616 L412.984,109.575 L414.305,110.481 L415.666,111.338 L417.066,112.147 L418.509,112.904 L419.994,113.591 L421.519,114.233 L423.082,114.831 L424.684,115.364 L426.325,115.844 L428.005,116.263 L429.721,116.624 L431.474,116.919 L433.262,117.153 L435.084,117.307 L436.94,117.396 L438.826,117.392 L440.743,117.297 L442.687,117.102 L444.657,116.788 L446.65,116.317 L448.662,115.622 L450.682,114.56 L451.712,113.796 L451.712,113.796 C454.702,113.601 457.023,109.714 456.896,105.114 C456.769,100.515 454.243,96.944 451.253,97.139 C451.253,97.139 451.253,97.139 451.253,97.139 L450.327,96.503 L448.48,95.621 L446.685,95.009 L444.934,94.525 L443.224,94.104 L441.554,93.711 L439.927,93.328 L438.34,92.949 L436.795,92.578 L435.293,92.188 L433.835,91.798 L432.42,91.389 L431.052,90.971 L429.73,90.535 L428.457,90.088 L427.232,89.623 L426.059,89.155 L424.94,88.665 L423.876,88.156 L422.868,87.655 L421.915,87.146 L421.025,86.627 L420.198,86.103 L419.437,85.577 L418.741,85.061 L418.11,84.566 L417.551,84.09 L417.059,83.639 L416.639,83.232 L416.289,82.865 L416.01,82.557 L415.788,82.323 L415.628,82.167 L415.517,82.095 L415.445,82.114 L415.399,82.222 L415.363,82.407 L415.322,82.654 L415.255,82.926 L415.169,83.191 L415.069,83.403 L414.963,83.534 L414.869,83.557 L414.804,83.46 L414.784,83.231 L414.818,82.873 L414.929,82.397 L415.126,81.817 L415.416,81.145 L415.802,80.397 L416.285,79.57 L416.863,78.678 L417.548,77.735 L418.334,76.754 L419.226,75.737 L420.211,74.666 L421.302,73.568 L422.497,72.45 L423.794,71.299 L425.188,70.108 L426.689,68.904 L428.287,67.654 L429.988,66.366 L431.811,65.031 L432.789,64.323 C435.363,63.15 436.832,58.988 436.069,55.028 C435.306,51.068 432.601,48.809 430.027,49.983 L430.027,49.983" fill="#000000"/>
      <g>
        <path d="M463.334,49.475 L463.868,49.418 L464.881,49.324 L465.858,49.25 L466.812,49.211 L467.744,49.194 L468.653,49.195 L469.539,49.214 L470.404,49.249 L471.245,49.302 L472.064,49.379 L473.271,49.539 L474.802,49.807 L476.226,50.131 L477.565,50.512 L478.82,50.961 L479.995,51.455 L481.09,51.993 L482.111,52.569 L483.053,53.188 L483.925,53.842 L484.729,54.524 L485.47,55.232 L486.149,55.96 L486.774,56.71 L487.348,57.48 L487.876,58.269 L488.361,59.08 L488.808,59.914 L489.221,60.769 L489.604,61.648 L489.96,62.556 L490.29,63.492 L490.599,64.461 L490.886,65.462 L491.153,66.499 L491.403,67.572 L491.641,68.678 L491.862,69.82 L492.068,71 L492.26,72.218 L492.44,73.468 L492.702,75.46 L493.02,78.185 L493.298,80.975 L493.578,83.864 L494.008,88.379 L494.514,92.992 L494.937,96.162 L495.438,99.347 L496.058,102.54 L496.625,104.973 L497.058,106.619 L497.533,108.188 L498.058,109.733 L498.63,111.253 L499.278,112.723 L499.986,114.141 L500.758,115.497 L501.205,116.221 L501.205,116.221 C502.716,120.281 506.081,121.687 508.72,119.362 C511.359,117.036 512.273,111.86 510.761,107.8 L510.763,107.329 L510.692,106.243 L510.617,105.15 L510.537,104.044 L510.435,102.928 L510.333,101.779 L510.227,100.602 L510.12,99.451 L509.946,97.605 L509.689,94.952 L509.41,92.16 L509.123,89.249 L508.626,84.614 L508.042,79.818 L507.589,76.513 L507.055,73.154 L506.453,69.807 L505.935,67.311 L505.545,65.608 L505.124,63.908 L504.669,62.21 L504.178,60.516 L503.648,58.833 L503.071,57.168 L502.45,55.519 L501.782,53.893 L501.066,52.297 L500.298,50.732 L499.479,49.207 L498.605,47.728 L497.677,46.299 L496.695,44.929 L495.658,43.62 L494.569,42.377 L493.426,41.204 L492.23,40.107 L490.983,39.087 L489.686,38.147 L488.338,37.288 L486.94,36.511 L485.491,35.812 L483.994,35.187 L482.444,34.643 L480.839,34.181 L479.179,33.8 L477.462,33.485 L475.686,33.246 L473.87,33.092 L472.467,33.028 L471.499,33.002 L470.514,32.988 L469.512,32.994 L468.492,33.02 L467.454,33.068 L466.399,33.136 L465.324,33.222 L464.231,33.312 L463.131,33.422 L462.593,33.482 C459.722,33.797 457.561,37.632 457.766,42.048 C457.97,46.465 460.463,49.79 463.334,49.475 L463.334,49.475" fill="#000000"/>
        <path d="M498.19,67.55 L497.577,67.276 L496.329,66.739 L495.09,66.229 L493.87,65.749 L492.669,65.3 L491.486,64.88 L490.322,64.49 L489.177,64.129 L488.05,63.797 L486.942,63.494 L485.852,63.218 L484.78,62.969 L483.726,62.748 L482.69,62.553 L481.672,62.386 L480.671,62.246 L479.689,62.131 L478.724,62.041 L477.777,61.975 L476.847,61.933 L475.934,61.917 L475.038,61.927 L474.159,61.961 L473.298,62.017 L472.061,62.139 L470.465,62.376 L468.91,62.714 L467.421,63.138 L465.995,63.645 L464.628,64.236 L463.326,64.917 L462.084,65.691 L460.903,66.551 L459.78,67.503 L458.718,68.551 L457.722,69.708 L456.795,70.978 L455.94,72.365 L455.165,73.873 L454.481,75.51 L453.905,77.272 L453.459,79.157 L453.156,81.137 L453.01,83.185 L453.037,85.261 L453.233,87.32 L453.594,89.317 L454.112,91.212 L454.761,92.979 L455.525,94.606 L456.383,96.087 L457.321,97.421 L458.332,98.613 L459.408,99.656 L460.538,100.571 L461.718,101.366 L462.944,102.046 L464.218,102.618 L465.539,103.062 L466.906,103.395 L468.316,103.624 L469.769,103.749 L471.267,103.764 L472.807,103.645 L474.39,103.419 L475.634,103.174 L476.484,102.973 L477.316,102.744 L478.157,102.469 L479.007,102.165 L479.867,101.833 L480.739,101.47 L481.619,101.078 L482.509,100.656 L483.407,100.185 L484.313,99.675 L485.228,99.133 L486.151,98.56 L487.084,97.954 L488.026,97.314 L488.97,96.613 L489.922,95.878 L490.882,95.108 L491.85,94.304 L492.826,93.463 L493.805,92.567 L494.789,91.631 L495.296,91.141 L495.296,91.141 C497.299,89.707 498.167,86.047 497.235,82.966 C496.303,79.884 493.924,78.549 491.921,79.983 L491.424,80.212 L490.419,80.665 L489.435,81.09 L488.476,81.507 L487.535,81.894 L486.614,82.252 L485.712,82.583 L484.829,82.887 L483.972,83.191 L483.134,83.469 L482.313,83.722 L481.512,83.948 L480.731,84.15 L479.969,84.335 L479.228,84.515 L478.507,84.67 L477.804,84.803 L477.12,84.914 L476.454,85.004 L475.808,85.072 L475.182,85.138 L474.604,85.184 L473.761,85.223 L472.665,85.217 L471.646,85.146 L470.706,85.044 L469.843,84.896 L469.06,84.702 L468.359,84.471 L467.737,84.218 L467.194,83.968 L466.732,83.709 L466.351,83.456 L466.05,83.222 L465.827,83.021 L465.67,82.885 L465.574,82.814 L465.532,82.819 L465.53,82.909 L465.55,83.085 L465.577,83.344 L465.585,83.667 L465.568,84.021 L465.522,84.372 L465.446,84.679 L465.355,84.913 L465.266,85.054 L465.192,85.082 L465.156,85.002 L465.177,84.819 L465.265,84.549 L465.432,84.203 L465.679,83.794 L466.013,83.333 L466.439,82.841 L466.961,82.331 L467.576,81.815 L468.288,81.296 L469.092,80.785 L469.995,80.294 L470.995,79.834 L472.089,79.407 L473.304,79.01 L474.282,78.745 L474.949,78.587 L475.639,78.444 L476.353,78.315 L477.092,78.198 L477.854,78.096 L478.641,78.01 L479.452,77.941 L480.288,77.89 L481.147,77.857 L482.031,77.843 L482.939,77.845 L483.872,77.868 L484.829,77.912 L485.811,77.977 L486.817,78.063 L487.849,78.172 L488.904,78.303 L489.984,78.458 L491.088,78.637 L492.218,78.84 L493.373,79.069 L494.552,79.324 L495.766,79.609 L496.4,79.768 C498.593,80.529 500.772,78.41 501.266,75.036 C501.761,71.662 500.383,68.311 498.19,67.55 L498.19,67.55" fill="#000000"/>
      </g>
      <g>
        <path d="M526.505,27.584 L526.359,29.191 L526.041,32.177 L525.692,35.003 L525.313,37.727 L524.905,40.351 L524.47,42.88 L524.022,45.316 L523.552,47.665 L523.065,49.926 L522.564,52.108 L522.06,54.214 L521.547,56.246 L521.026,58.204 L520.498,60.099 L519.979,61.934 L519.46,63.711 L518.943,65.431 L518.427,67.1 L517.919,68.72 L517.429,70.31 L516.948,71.859 L516.477,73.373 L516.017,74.862 L515.571,76.331 L515.151,77.796 L514.75,79.261 L514.368,80.734 L514.01,82.229 L513.679,83.767 L513.39,85.365 L513.143,87.042 L512.951,88.826 L512.837,90.734 L512.832,92.782 L512.964,94.964 L513.268,97.252 L513.774,99.581 L514.496,101.853 L515.41,103.976 L516.471,105.872 L517.634,107.514 L518.858,108.905 L520.12,110.071 L521.401,111.051 L522.706,111.879 L524.041,112.587 L525.413,113.196 L526.829,113.731 L528.306,114.198 L529.851,114.602 L531.47,114.96 L533.176,115.254 L534.973,115.509 L536.871,115.698 L538.873,115.834 L540.986,115.913 L543.217,115.902 L545.571,115.805 L548.053,115.602 L550.667,115.263 L553.421,114.753 L556.323,113.95 L558.595,113.23 L560.161,112.596 L561.766,111.827 L563.414,110.882 L564.255,110.335 L564.255,110.335 C565.577,110.45 566.709,108.897 566.784,106.864 C566.859,104.832 565.849,103.09 564.528,102.975 C564.528,102.975 564.528,102.975 564.528,102.975 L563.737,102.284 L562.178,101.056 L560.652,100.005 L559.163,99.089 L556.992,97.949 L554.226,96.586 L551.601,95.513 L549.117,94.605 L546.776,93.824 L544.576,93.138 L542.515,92.523 L540.591,91.978 L538.806,91.47 L537.16,90.99 L535.649,90.547 L534.278,90.113 L533.043,89.709 L531.952,89.313 L531.003,88.939 L530.198,88.59 L529.546,88.268 L529.05,87.996 L528.709,87.79 L528.522,87.678 L528.489,87.694 L528.584,87.873 L528.778,88.236 L529.023,88.785 L529.267,89.488 L529.459,90.264 L529.57,91.019 L529.607,91.652 L529.592,92.094 L529.555,92.313 L529.518,92.302 L529.505,92.072 L529.532,91.637 L529.606,91.023 L529.72,90.245 L529.883,89.317 L530.094,88.257 L530.348,87.075 L530.64,85.776 L530.957,84.363 L531.304,82.847 L531.677,81.229 L532.072,79.516 L532.483,77.713 L532.895,75.805 L533.312,73.806 L533.732,71.717 L534.15,69.539 L534.561,67.272 L534.95,64.912 L535.325,62.463 L535.681,59.928 L536.016,57.307 L536.313,54.598 L536.578,51.801 L536.81,48.921 L537.004,45.955 L537.147,42.905 L537.245,39.771 L537.295,36.553 L537.291,33.251 L537.228,29.92 L537.173,28.296 C537.301,23.764 535.016,19.931 532.07,19.734 C529.124,19.537 526.633,23.052 526.505,27.584 L526.505,27.584" fill="#000000"/>
        <path d="M516.558,63.131 L517.741,63.675 L520.238,64.679 L522.809,65.459 L525.407,66.06 L528.025,66.499 L530.656,66.789 L533.292,66.928 L535.928,66.927 L538.557,66.792 L541.176,66.523 L543.775,66.117 L546.35,65.569 L548.895,64.864 L551.401,63.978 L553.856,62.867 L556.244,61.437 L557.416,60.542 L557.416,60.542 C559.57,60.015 561.039,56.901 560.697,53.587 C560.355,50.272 558.331,48.012 556.176,48.539 L554.969,48.226 L552.551,47.895 L550.145,47.787 L547.743,47.804 L545.339,47.892 L542.933,48.019 L540.527,48.165 L538.122,48.316 L535.72,48.463 L533.322,48.598 L530.93,48.719 L528.546,48.83 L526.172,48.922 L523.805,49 L521.448,49.075 L519.061,49.184 L517.822,49.207 C517.822,49.207 517.822,49.207 517.822,49.207 C515.323,48.67 513.014,51.351 512.664,55.196 C512.315,59.042 514.059,62.594 516.558,63.131 L516.558,63.131" fill="#000000"/>
      </g>
      <path d="M567.059,69.228 L567.267,69.208 L567.632,69.198 L568.22,69.212 L569.091,69.283 L570.044,69.411 L571.086,69.591 L572.206,69.822 L573.397,70.099 L574.65,70.417 L575.955,70.767 L577.308,71.147 L579.416,71.761 L582.32,72.618 L585.293,73.467 L588.291,74.283 L590.541,74.825 L592.035,75.155 L593.503,75.45 L594.95,75.7 L596.374,75.901 L597.771,76.049 L599.14,76.138 L600.479,76.155 L601.791,76.092 L602.792,75.945 L603.468,75.784 L604.103,75.581 L604.729,75.306 L605.343,74.952 L605.941,74.509 L606.512,73.949 L607.061,73.307 L607.588,72.599 L608.118,71.908 L608.461,71.485 L608.461,71.485 C608.516,71.428 608.57,71.368 608.623,71.307 L608.623,71.307 L608.753,71.077 L609.255,70.324 L609.808,69.353 L610.31,68.247 L610.743,67.006 L611.064,65.638 L611.246,64.196 L611.279,62.754 L611.174,61.378 L610.964,60.113 L610.679,58.967 L610.337,57.94 L609.955,57.017 L609.544,56.181 L608.923,55.119 L608.008,53.812 L606.996,52.565 L605.924,51.403 L604.791,50.305 L603.598,49.258 L602.355,48.245 L601.065,47.264 L599.733,46.32 L598.367,45.414 L596.975,44.55 L595.564,43.729 L594.146,42.953 L592.727,42.227 L591.316,41.555 L589.921,40.941 L588.553,40.391 L587.216,39.908 L585.919,39.501 L584.96,39.246 L584.33,39.099 L583.727,38.978 L583.135,38.879 L582.557,38.803 L581.99,38.751 L581.434,38.725 L580.887,38.727 L580.346,38.765 L579.809,38.842 L579.27,38.962 L578.724,39.138 L578.373,39.281 L578.373,39.281 C578.342,39.293 578.312,39.307 578.282,39.321 L578.282,39.321 L577.791,39.571 L576.787,40.095 L575.798,40.629 L574.836,41.156 L573.903,41.698 L573,42.254 L572.123,42.809 L571.27,43.37 L570.447,43.945 L569.651,44.535 L568.882,45.14 L568.135,45.748 L567.085,46.668 L565.772,47.952 L564.535,49.318 L563.394,50.745 L562.352,52.25 L561.412,53.833 L560.569,55.491 L559.835,57.23 L559.215,59.049 L558.714,60.938 L558.333,62.884 L558.082,64.874 L557.962,66.888 L557.971,68.908 L558.105,70.913 L558.356,72.891 L558.711,74.833 L559.167,76.726 L559.718,78.569 L560.355,80.357 L561.073,82.089 L561.866,83.766 L562.728,85.386 L563.656,86.948 L564.646,88.46 L565.696,89.914 L566.803,91.314 L567.964,92.655 L569.177,93.939 L570.441,95.162 L571.753,96.324 L573.111,97.421 L574.514,98.451 L575.958,99.413 L577.444,100.306 L578.968,101.126 L580.526,101.864 L582.122,102.521 L583.748,103.095 L585.406,103.577 L587.093,103.965 L588.804,104.261 L590.54,104.44 L592.296,104.518 L594.07,104.471 L595.852,104.215 L597.636,103.762 L599.41,103.13 L601.172,102.335 L602.92,101.401 L604.641,100.31 L606.339,99.091 L607.999,97.712 L609.625,96.201 L611.203,94.538 L612.735,92.739 L614.209,90.792 L615.295,89.213 L616.003,88.109 L616.357,87.53 L616.357,87.53 C618.131,85.458 618.477,81.565 617.129,78.836 C615.782,76.107 613.252,75.575 611.478,77.648 C611.478,77.648 611.478,77.648 611.478,77.648 L611.136,77.882 L610.443,78.357 L609.404,79.027 L608.006,79.858 L606.625,80.591 L605.255,81.221 L603.901,81.768 L602.557,82.218 L601.229,82.605 L599.909,82.902 L598.604,83.145 L597.309,83.32 L596.025,83.456 L594.754,83.578 L593.491,83.706 L592.234,83.86 L590.977,83.961 L589.725,83.989 L588.478,83.968 L587.239,83.877 L586.01,83.725 L584.794,83.515 L583.596,83.243 L582.416,82.914 L581.258,82.532 L580.127,82.096 L579.022,81.608 L577.951,81.071 L576.912,80.49 L575.911,79.87 L574.951,79.211 L574.034,78.518 L573.163,77.795 L572.341,77.047 L571.57,76.278 L570.853,75.494 L570.193,74.696 L569.59,73.894 L569.046,73.095 L568.56,72.303 L568.132,71.523 L567.76,70.761 L567.443,70.016 L567.177,69.295 L566.965,68.588 L566.799,67.893 L566.676,67.204 L566.597,66.505 L566.565,65.784 L566.586,65.026 L566.675,64.225 L566.838,63.371 L567.084,62.463 L567.424,61.502 L567.876,60.503 L568.437,59.467 L569.117,58.399 L569.925,57.323 L570.883,56.223 L571.688,55.396 L572.253,54.86 L572.855,54.34 L573.49,53.823 L574.158,53.309 L574.859,52.801 L575.598,52.308 L576.373,51.838 L577.183,51.374 L578.026,50.92 L578.908,50.494 L579.84,50.084 L580.342,49.875 L580.25,49.915 L580.185,49.939 L580.256,49.917 L580.394,49.892 L580.591,49.876 L580.839,49.873 L581.132,49.884 L581.466,49.915 L581.836,49.967 L582.238,50.04 L582.67,50.135 L583.128,50.252 L583.596,50.385 L584.347,50.625 L585.434,51.015 L586.581,51.474 L587.774,52.001 L589.001,52.591 L590.249,53.238 L591.506,53.936 L592.76,54.68 L593.998,55.464 L595.21,56.28 L596.383,57.12 L597.505,57.976 L598.563,58.84 L599.54,59.707 L600.42,60.565 L601.191,61.387 L601.836,62.149 L602.33,62.821 L602.692,63.418 L602.866,63.767 L602.902,63.862 L602.897,63.861 L602.862,63.744 L602.809,63.497 L602.754,63.117 L602.726,62.612 L602.753,62.025 L602.844,61.42 L602.987,60.872 L603.154,60.431 L603.296,60.104 L603.395,59.889 L603.346,59.869 L603.162,59.997 L603.325,59.819 L603.381,59.694 L603.299,59.567 L603.159,59.377 L602.992,59.21 L602.798,59.084 L602.584,59.032 L602.339,59.031 L602.061,59.071 L601.75,59.145 L601.44,59.225 L600.886,59.376 L599.996,59.595 L598.997,59.775 L597.904,59.915 L596.728,60.014 L595.481,60.075 L594.172,60.104 L592.811,60.108 L591.415,60.086 L589.246,60.008 L586.259,59.878 L583.235,59.72 L580.231,59.587 L578.027,59.518 L576.585,59.491 L575.176,59.482 L573.806,59.502 L572.478,59.55 L571.198,59.631 L569.969,59.751 L568.793,59.919 L567.691,60.139 L566.909,60.343 L566.416,60.499 L566.212,60.575 C566.212,60.575 566.212,60.575 566.212,60.575 C564.659,60.934 563.589,63.163 563.823,65.552 C564.057,67.942 565.506,69.587 567.059,69.228 L567.059,69.228" fill="#000000"/>
      <g>
        <path d="M656.253,53.717 L655.443,53.235 L653.731,52.318 L652.001,51.512 L650.291,50.828 L648.602,50.272 L646.937,49.829 L645.296,49.5 L643.683,49.287 L642.098,49.178 L640.544,49.171 L639.021,49.275 L637.533,49.476 L636.079,49.77 L634.661,50.154 L633.282,50.627 L631.942,51.185 L630.645,51.837 L629.391,52.572 L628.181,53.384 L627.016,54.271 L625.898,55.232 L624.828,56.265 L623.808,57.368 L622.84,58.539 L621.925,59.778 L621.068,61.089 L620.272,62.471 L619.538,63.916 L618.868,65.427 L618.267,67.002 L617.741,68.641 L617.297,70.343 L616.938,72.102 L616.67,73.91 L616.5,75.765 L616.435,77.656 L616.488,79.569 L616.656,81.486 L616.942,83.391 L617.348,85.264 L617.871,87.088 L618.507,88.844 L619.25,90.517 L620.094,92.098 L621.035,93.569 L622.063,94.934 L623.168,96.188 L624.346,97.333 L625.594,98.372 L626.913,99.3 L628.299,100.12 L629.748,100.84 L631.263,101.46 L632.476,101.873 L633.315,102.114 L634.139,102.317 L634.977,102.495 L635.834,102.65 L636.708,102.78 L637.598,102.886 L638.507,102.968 L639.434,103.024 L640.378,103.046 L641.341,103.043 L642.322,103.015 L643.321,102.961 L644.339,102.881 L645.376,102.776 L646.432,102.631 L647.508,102.458 L648.6,102.257 L649.714,102.029 L650.846,101.774 L651.998,101.479 L653.17,101.151 L653.781,100.973 L653.781,100.973 C656.911,100.205 659.045,95.678 658.546,90.862 C658.047,86.046 655.104,82.765 651.974,83.532 C651.974,83.532 651.974,83.532 651.974,83.532 L651.463,83.629 L650.424,83.812 L649.411,83.975 L648.424,84.125 L647.465,84.251 L646.528,84.354 L645.62,84.435 L644.736,84.496 L643.878,84.548 L643.045,84.58 L642.236,84.591 L641.454,84.583 L640.696,84.555 L639.962,84.51 L639.255,84.456 L638.571,84.387 L637.912,84.301 L637.278,84.199 L636.669,84.082 L636.083,83.952 L635.524,83.808 L635.022,83.666 L634.299,83.439 L633.374,83.088 L632.544,82.706 L631.809,82.304 L631.163,81.893 L630.602,81.485 L630.122,81.082 L629.72,80.694 L629.389,80.33 L629.118,79.992 L628.895,79.691 L628.714,79.417 L628.566,79.166 L628.445,78.931 L628.343,78.7 L628.257,78.464 L628.186,78.21 L628.131,77.927 L628.088,77.606 L628.066,77.239 L628.072,76.824 L628.11,76.363 L628.185,75.856 L628.299,75.306 L628.454,74.718 L628.656,74.097 L628.908,73.452 L629.21,72.789 L629.561,72.109 L629.962,71.418 L630.416,70.728 L630.922,70.043 L631.48,69.372 L632.091,68.716 L632.753,68.084 L633.467,67.479 L634.231,66.907 L635.044,66.37 L635.905,65.863 L636.816,65.401 L637.775,64.991 L638.783,64.635 L639.839,64.337 L640.942,64.103 L642.092,63.925 L643.289,63.818 L644.532,63.787 L645.821,63.829 L647.157,63.951 L648.539,64.161 L649.966,64.452 L651.44,64.837 L652.995,65.334 L653.842,65.645 C653.842,65.645 653.842,65.645 653.842,65.645 C655.983,66.669 658.259,64.829 658.924,61.535 C659.59,58.242 658.394,54.741 656.253,53.717 L656.253,53.717" fill="#000000"/>
        <path d="M648.937,23.349 L649.09,24.028 L649.34,25.292 L649.663,27.194 L650.014,29.75 L650.277,32.308 L650.472,34.91 L650.613,37.553 L650.7,40.241 L650.751,42.971 L650.763,45.747 L650.756,48.565 L650.71,52.914 L650.632,58.819 L650.6,64.835 L650.685,71.003 L650.879,75.756 L651.072,79.011 L651.357,82.238 L651.717,85.487 L652.181,88.747 L652.757,92.01 L653.458,95.257 L654.3,98.48 L655.295,101.648 L656.171,104.058 L656.832,105.657 L657.5,107.155 L658.23,108.602 L658.996,110.015 L659.822,111.371 L660.694,112.671 L661.618,113.911 L662.604,115.058 L663.635,116.134 L664.212,116.694 L664.212,116.694 C666.751,120.893 671.021,121.131 673.75,117.226 C676.479,113.321 676.634,106.752 674.095,102.553 L674.009,102.016 L673.758,100.863 L673.521,99.738 L673.281,98.662 L673.043,97.605 L672.815,96.565 L672.579,95.544 L672.358,94.518 L672.125,93.508 L671.932,92.564 L671.612,91.096 L671.163,88.984 L670.72,86.81 L670.283,84.554 L669.852,82.216 L669.427,79.79 L669.002,77.276 L668.594,74.674 L668.171,72.043 L667.555,67.885 L666.702,62.067 L665.794,56.055 L664.792,49.968 L663.956,45.396 L663.35,42.32 L662.69,39.257 L661.982,36.212 L661.208,33.2 L660.373,30.228 L659.465,27.31 L658.482,24.453 L657.431,21.709 L656.593,19.717 L656.013,18.427 L655.733,17.842 C654.744,14.955 652.422,13.847 650.545,15.368 C648.669,16.889 647.949,20.462 648.937,23.349 L648.937,23.349" fill="#000000"/>
      </g>
      <g>
        <path d="M729.724,10.742 L729.744,12.723 L729.724,16.676 L729.63,20.622 L729.473,24.563 L729.239,28.503 L728.956,32.436 L728.419,38.335 L727.533,46.191 L726.523,54.033 L725.412,61.871 L724.273,69.702 L723.133,77.533 L722.062,85.362 L721.096,93.196 L720.47,99.078 L720.124,103.001 L719.82,106.924 L719.586,110.85 L719.42,114.776 L719.332,118.704 L719.321,122.634 L719.4,126.567 L719.567,130.502 L719.828,134.441 L719.996,136.419 L719.996,136.419 C720.271,138.891 725.716,140.025 732.159,138.95 C738.601,137.875 743.602,135 743.327,132.527 L743.062,130.614 L742.568,126.778 L742.126,122.947 L741.732,119.12 L741.375,115.298 L741.061,111.478 L740.777,107.661 L740.526,103.848 L740.297,100.037 L740.109,96.226 L739.858,90.512 L739.6,82.885 L739.411,75.249 L739.259,67.605 L739.142,59.944 L739.017,52.267 L738.885,44.565 L738.702,36.841 L738.533,31.028 L738.403,27.139 L738.24,23.244 L738.06,19.337 L737.842,15.421 L737.589,11.497 L737.447,9.534 C737.413,8.707 735.656,8.307 733.523,8.641 C731.391,8.974 729.689,9.915 729.724,10.742 L729.724,10.742" fill="#000000"/>
        <path d="M728.536,11.78 L729.349,11.796 L730.853,11.839 L732.292,11.856 L733.699,11.866 L735.07,11.886 L736.409,11.913 L737.712,11.959 L738.983,12.016 L740.23,12.081 L741.443,12.163 L742.627,12.263 L743.779,12.379 L744.905,12.508 L746.013,12.646 L747.094,12.8 L748.149,12.969 L749.179,13.154 L750.184,13.354 L751.165,13.569 L752.127,13.796 L753.071,14.036 L753.992,14.289 L754.891,14.557 L755.768,14.84 L756.624,15.137 L757.458,15.447 L758.271,15.772 L759.061,16.11 L759.836,16.46 L760.593,16.822 L761.327,17.197 L762.041,17.586 L762.733,17.987 L763.403,18.401 L764.053,18.827 L764.681,19.266 L765.288,19.717 L765.872,20.179 L766.724,20.906 L767.774,21.91 L768.722,22.945 L769.582,24.019 L770.357,25.131 L771.048,26.277 L771.649,27.456 L772.16,28.666 L772.583,29.904 L772.915,31.169 L773.159,32.455 L773.312,33.763 L773.38,35.087 L773.359,36.427 L773.25,37.778 L773.053,39.139 L772.77,40.507 L772.4,41.879 L771.945,43.251 L771.406,44.622 L770.783,45.988 L770.079,47.346 L769.294,48.694 L768.43,50.028 L767.488,51.345 L766.472,52.641 L765.382,53.915 L764.221,55.163 L762.99,56.381 L761.692,57.565 L760.331,58.714 L758.913,59.824 L757.442,60.89 L755.919,61.91 L754.346,62.88 L752.736,63.798 L751.095,64.66 L749.423,65.466 L747.723,66.209 L746.011,66.891 L744.289,67.511 L742.544,68.062 L740.802,68.552 L739.037,68.964 L737.268,69.305 L736.592,69.372 L736.592,69.372 C730.019,70.955 725.929,74.132 727.457,76.467 C728.984,78.802 735.55,79.412 742.123,77.829 C742.123,77.829 742.123,77.829 742.123,77.829 L744.033,77.273 L747.33,76.272 L750.485,75.219 L753.516,74.124 L756.397,72.978 L759.152,71.792 L761.766,70.565 L764.241,69.3 L766.589,68.004 L768.814,66.677 L770.914,65.322 L772.893,63.942 L774.763,62.537 L776.524,61.11 L778.177,59.663 L779.724,58.198 L781.169,56.714 L782.515,55.216 L783.764,53.704 L784.914,52.181 L785.968,50.646 L786.925,49.104 L787.787,47.556 L788.554,46.003 L789.225,44.447 L789.801,42.891 L790.281,41.337 L790.666,39.787 L790.954,38.242 L791.146,36.706 L791.241,35.179 L791.237,33.665 L791.135,32.165 L790.932,30.683 L790.626,29.221 L790.218,27.78 L789.707,26.363 L789.092,24.973 L788.37,23.611 L787.541,22.28 L786.603,20.983 L785.55,19.724 L784.381,18.506 L783.097,17.328 L781.713,16.208 L780.603,15.401 L779.815,14.871 L778.998,14.355 L778.151,13.851 L777.273,13.361 L776.364,12.885 L775.423,12.423 L774.452,11.976 L773.449,11.544 L772.414,11.128 L771.345,10.73 L770.238,10.35 L769.101,9.987 L767.93,9.642 L766.727,9.315 L765.493,9.007 L764.224,8.717 L762.924,8.447 L761.594,8.197 L760.224,7.971 L758.821,7.768 L757.386,7.587 L755.92,7.427 L754.424,7.29 L752.898,7.176 L751.344,7.085 L749.752,7.025 L748.13,6.992 L746.483,6.983 L744.808,6.998 L743.112,7.038 L741.383,7.113 L739.627,7.221 L737.852,7.353 L736.05,7.524 L734.228,7.73 L732.379,7.987 L730.538,8.318 L729.656,8.497 C729.656,8.497 729.656,8.497 729.656,8.497 C727.452,8.707 725.414,9.612 725.105,10.519 C724.796,11.425 726.332,11.99 728.536,11.78 L728.536,11.78" fill="#000000"/>
        <path d="M747.742,78.588 L748.693,79.315 L750.482,80.786 L752.197,82.31 L753.852,83.896 L755.463,85.534 L757.045,87.212 L758.589,88.927 L760.107,90.671 L762.359,93.324 L765.345,96.88 L768.341,100.409 L770.669,103.003 L772.263,104.703 L773.899,106.355 L775.594,107.961 L777.358,109.513 L779.175,111.009 L781.102,112.43 L783.094,113.785 L785.258,115.039 L787.514,116.214 L789.334,117.053 L790.614,117.592 L791.894,118.088 L793.249,118.54 L794.647,118.965 L796.119,119.351 L797.64,119.703 L799.242,120.011 L800.903,120.278 L802.652,120.494 L804.47,120.659 L806.373,120.764 L808.351,120.804 L810.4,120.778 L812.519,120.671 L814.679,120.489 L815.972,120.357 L815.972,120.357 C821.955,120.086 828.108,117.778 829.716,115.201 C831.323,112.625 827.775,110.757 821.791,111.029 L821.797,110.956 L821.412,110.831 L821.027,110.7 L820.608,110.574 L820.157,110.44 L819.667,110.296 L819.126,110.14 L818.55,109.965 L817.92,109.773 L817.263,109.556 L816.554,109.319 L815.827,109.052 L815.055,108.764 L814.266,108.444 L813.43,108.11 L812.619,107.765 L811.348,107.177 L809.562,106.273 L807.765,105.259 L805.872,104.173 L803.978,102.993 L802.032,101.743 L800.08,100.42 L798.1,99.035 L796.093,97.596 L794.065,96.117 L790.984,93.815 L786.77,90.649 L782.482,87.428 L779.197,85.017 L776.968,83.418 L774.71,81.837 L772.428,80.279 L770.104,78.755 L767.744,77.268 L765.355,75.822 L762.944,74.443 L761.757,73.793 C759.853,72.569 755.172,72.65 751.302,73.974 C747.431,75.298 745.838,77.364 747.742,78.588 L747.742,78.588" fill="#000000"/>
      </g>
      <path d="M824.486,48.668 L824.359,48.451 L824.035,47.987 L823.653,47.536 L823.222,47.117 L822.723,46.723 L822.126,46.351 L821.385,46.002 L820.431,45.68 L819.172,45.408 L817.506,45.235 L815.406,45.235 L813.021,45.468 L810.015,46.077 L806.709,47.183 L804.255,48.377 L802.519,49.471 L801.129,50.521 L799.91,51.578 L798.788,52.667 L797.732,53.798 L796.729,54.976 L795.766,56.2 L794.839,57.466 L793.964,58.765 L793.128,60.095 L792.333,61.445 L791.599,62.809 L790.915,64.178 L790.282,65.546 L789.724,66.9 L789.227,68.236 L788.794,69.547 L788.447,70.82 L788.172,72.053 L787.975,73.239 L787.893,74.11 L787.868,74.682 L787.867,75.225 L787.891,75.754 L787.942,76.27 L788.023,76.774 L788.085,77.053 L788.085,77.053 C788.09,77.068 788.095,77.083 788.1,77.099 L788.1,77.099 L788.211,77.585 L788.47,78.573 L788.754,79.546 L789.058,80.489 L789.397,81.4 L789.757,82.284 L790.135,83.14 L790.544,83.969 L790.976,84.768 L791.426,85.542 L791.898,86.289 L792.404,87.007 L792.928,87.7 L793.47,88.369 L794.299,89.307 L795.501,90.471 L796.81,91.557 L798.199,92.555 L799.679,93.466 L801.297,94.275 L803.024,95 L804.877,95.637 L806.887,96.179 L809.08,96.612 L811.456,96.935 L814.028,97.133 L816.796,97.181 L819.728,97.065 L822.76,96.781 L825.814,96.331 L828.793,95.726 L831.626,94.997 L834.257,94.175 L836.667,93.285 L838.858,92.35 L840.845,91.382 L842.65,90.391 L844.295,89.379 L845.806,88.352 L847.195,87.306 L848.474,86.241 L849.652,85.159 L850.748,84.058 L851.762,82.938 L852.692,81.799 L853.541,80.64 L854.309,79.464 L855.009,78.27 L855.634,77.061 L856.178,75.835 L856.636,74.598 L857.007,73.348 L857.289,72.088 L857.49,70.819 L857.602,69.543 L857.616,68.262 L857.531,66.98 L857.348,65.696 L857.057,64.415 L856.658,63.137 L856.153,61.865 L855.527,60.602 L854.778,59.351 L853.901,58.115 L852.896,56.895 L851.765,55.692 L850.814,54.792 L850.13,54.196 L849.423,53.618 L848.68,53.048 L847.9,52.485 L847.083,51.929 L846.229,51.381 L845.336,50.842 L844.406,50.311 L843.436,49.789 L842.917,49.521 L842.928,49.527 L842.444,49.277 L841.606,48.818 L840.833,48.361 L840.093,47.887 L839.384,47.401 L838.703,46.905 L837.72,46.143 L836.466,45.138 L835.275,44.159 L834.106,43.217 L832.906,42.332 L831.898,41.705 L831.144,41.295 L830.347,40.924 L829.449,40.577 L828.404,40.259 L827.153,39.986 L825.63,39.786 L823.784,39.702 L821.64,39.799 L819.362,40.095 L817.156,40.562 L815.164,41.145 L813.417,41.792 L811.893,42.488 L810.797,43.057 L810.099,43.451 L809.475,43.833 L808.867,44.229 L808.538,44.448 L808.538,44.448 C806.169,45.779 806.275,47.304 808.776,47.853 C811.276,48.401 815.224,47.767 817.593,46.436 C817.593,46.436 817.593,46.436 817.593,46.436 L817.831,46.335 L818.332,46.126 L818.783,45.947 L819.127,45.822 L819.533,45.69 L819.904,45.594 L819.939,45.605 L819.623,45.701 L818.994,45.824 L818.203,45.91 L817.465,45.928 L816.952,45.887 L816.696,45.845 L816.655,45.839 L816.772,45.892 L816.995,46.01 L817.287,46.194 L817.598,46.421 L818.161,46.889 L819.048,47.69 L820.017,48.644 L821.083,49.715 L822.27,50.864 L823.279,51.751 L824.017,52.359 L824.81,52.973 L825.663,53.588 L826.583,54.201 L827.545,54.788 L828.005,55.05 L828.005,55.05 C828.009,55.052 828.012,55.054 828.016,55.056 L828.016,55.056 L828.39,55.268 L829.154,55.719 L829.887,56.177 L830.587,56.64 L831.257,57.11 L831.896,57.586 L832.504,58.068 L833.084,58.555 L833.633,59.048 L834.14,59.532 L834.857,60.274 L835.731,61.294 L836.485,62.332 L837.13,63.383 L837.672,64.445 L838.112,65.514 L838.454,66.589 L838.691,67.668 L838.832,68.75 L838.883,69.829 L838.839,70.905 L838.709,71.974 L838.499,73.033 L838.206,74.079 L837.829,75.111 L837.384,76.123 L836.872,77.114 L836.301,78.077 L835.673,79.014 L834.987,79.917 L834.244,80.784 L833.462,81.611 L832.65,82.393 L831.815,83.127 L830.965,83.806 L830.102,84.426 L829.256,84.98 L828.44,85.466 L827.673,85.877 L826.975,86.207 L826.377,86.454 L825.908,86.617 L825.597,86.701 L825.466,86.713 L825.522,86.67 L825.754,86.593 L826.113,86.508 L826.532,86.441 L826.924,86.399 L827.216,86.379 L827.35,86.37 L827.302,86.355 L827.077,86.304 L826.696,86.196 L826.165,86.026 L825.517,85.776 L824.789,85.432 L824.005,84.987 L823.142,84.452 L822.256,83.809 L821.361,83.054 L820.439,82.17 L819.732,81.436 L819.277,80.923 L818.828,80.379 L818.385,79.807 L817.935,79.207 L817.488,78.578 L817.049,77.919 L816.615,77.232 L816.18,76.515 L815.754,75.766 L815.339,74.986 L814.92,74.179 L814.512,73.34 L814.112,72.456 L813.906,71.984 L813.921,72.029 L813.871,71.941 L813.758,71.672 L813.654,71.368 L813.562,71.031 L813.481,70.665 L813.414,70.287 L813.335,69.664 L813.263,68.735 L813.246,67.734 L813.282,66.671 L813.353,65.564 L813.471,64.418 L813.637,63.247 L813.828,62.063 L814.062,60.875 L814.334,59.693 L814.627,58.53 L814.954,57.397 L815.31,56.302 L815.677,55.262 L816.064,54.287 L816.461,53.393 L816.849,52.598 L817.206,51.924 L817.498,51.401 L817.643,51.073 L817.461,51.01 L816.571,51.287 L814.836,51.735 L813.007,52.032 L811.406,52.148 L810.086,52.106 L809.198,51.968 L808.713,51.812 L808.528,51.688 L808.552,51.623 L808.712,51.621 L808.963,51.687 L809.275,51.82 L809.628,52.015 L810.029,52.294 L810.261,52.486 C811.45,53.84 815.599,54.083 819.527,53.029 C823.455,51.975 825.675,50.022 824.486,48.668 L824.486,48.668" fill="#000000"/>
      <g>
        <path d="M856.691,13.788 L856.627,16.726 L856.45,22.608 L856.215,28.502 L855.935,34.408 L855.479,43.285 L854.927,55.111 L854.552,66.897 L854.518,78.604 L854.807,87.312 L855.105,93.086 L855.576,98.815 L856.183,104.505 L856.539,107.338 L856.539,107.338 C856.687,110.015 862.415,111.297 869.334,110.2 C876.254,109.104 881.743,106.044 881.595,103.366 L881.635,100.497 L881.684,94.736 L881.688,88.959 L881.591,83.178 L881.392,74.476 L880.818,62.864 L879.913,51.256 L878.714,39.669 L877.621,31.006 L876.815,25.243 L875.953,19.492 L875.034,13.763 L874.551,10.909 C874.412,9.006 870.301,8.107 865.369,8.902 C860.437,9.697 856.552,11.884 856.691,13.788 L856.691,13.788" fill="#000000"/>
        <path d="M875.505,53.843 L876.174,53.514 L877.369,52.964 L878.465,52.496 L879.493,52.086 L880.456,51.734 L881.343,51.44 L882.15,51.204 L882.865,51.02 L883.485,50.886 L884.01,50.799 L884.438,50.753 L884.773,50.742 L885.026,50.753 L885.214,50.78 L885.356,50.82 L885.476,50.866 L885.593,50.917 L885.73,50.971 L885.903,51.028 L886.116,51.096 L886.372,51.18 L886.673,51.282 L887.01,51.407 L887.39,51.554 L887.802,51.727 L888.237,51.93 L888.69,52.162 L889.154,52.424 L889.627,52.716 L890.115,53.035 L890.605,53.383 L891.093,53.76 L891.578,54.166 L892.056,54.598 L892.527,55.057 L893,55.539 L893.462,56.046 L893.913,56.577 L894.351,57.131 L894.775,57.706 L895.407,58.62 L896.199,59.901 L896.921,61.243 L897.595,62.648 L898.209,64.113 L898.757,65.632 L899.254,67.193 L899.682,68.796 L900.045,70.431 L900.348,72.093 L900.58,73.776 L900.747,75.473 L900.847,77.179 L900.876,78.887 L900.838,80.59 L900.73,82.283 L900.55,83.96 L900.301,85.611 L899.982,87.234 L899.593,88.82 L899.135,90.361 L898.608,91.851 L898.016,93.283 L897.359,94.648 L896.642,95.937 L895.87,97.143 L895.276,97.962 L894.874,98.465 L894.449,98.962 L894.013,99.43 L893.568,99.865 L893.126,100.266 L892.689,100.632 L892.266,100.959 L891.845,101.244 L891.448,101.485 L891.088,101.682 L890.775,101.83 L890.503,101.927 L890.304,101.977 L890.191,101.982 L890.147,101.94 L890.202,101.864 L890.341,101.768 L890.54,101.654 L890.779,101.532 L891.024,101.419 L891.238,101.317 L891.394,101.224 L891.461,101.147 L891.407,101.089 L891.217,101.044 L890.879,101.006 L890.402,100.965 L889.8,100.903 L889.074,100.821 L888.246,100.705 L887.32,100.557 L886.315,100.366 L885.228,100.136 L884.075,99.862 L882.858,99.543 L882.259,99.38 L882.259,99.38 C879.458,98.165 873.788,98.576 869.596,100.299 C865.403,102.021 864.275,104.403 867.076,105.618 L867.644,105.962 L868.732,106.588 L869.847,107.17 L870.989,107.71 L872.174,108.203 L873.399,108.655 L874.685,109.056 L876.034,109.411 L877.469,109.705 L878.991,109.943 L880.614,110.107 L882.346,110.188 L884.176,110.183 L886.088,110.086 L888.053,109.903 L890.035,109.641 L892.012,109.3 L893.944,108.884 L895.799,108.41 L897.555,107.891 L899.189,107.33 L900.686,106.742 L902.076,106.142 L903.342,105.529 L904.498,104.907 L905.574,104.281 L906.565,103.651 L907.482,103.012 L908.336,102.368 L909.15,101.716 L909.914,101.056 L910.633,100.385 L911.313,99.704 L911.964,99.011 L912.587,98.307 L913.196,97.568 L914.048,96.452 L915.071,94.951 L915.999,93.399 L916.838,91.799 L917.589,90.155 L918.257,88.47 L918.843,86.748 L919.349,84.995 L919.775,83.214 L920.122,81.409 L920.389,79.588 L920.578,77.754 L920.688,75.913 L920.717,74.07 L920.668,72.231 L920.537,70.4 L920.323,68.585 L920.033,66.789 L919.654,65.018 L919.192,63.279 L918.652,61.575 L918.015,59.915 L917.297,58.301 L916.492,56.738 L915.588,55.234 L914.607,53.803 L913.812,52.778 L913.24,52.109 L912.645,51.459 L912.026,50.828 L911.382,50.215 L910.712,49.621 L910.004,49.051 L909.266,48.502 L908.498,47.974 L907.698,47.469 L906.863,46.986 L905.989,46.527 L905.064,46.097 L904.094,45.692 L903.075,45.316 L902.003,44.968 L900.871,44.652 L899.672,44.372 L898.393,44.133 L897.041,43.937 L895.609,43.787 L894.097,43.691 L892.509,43.653 L890.849,43.683 L889.132,43.782 L887.383,43.949 L885.618,44.185 L883.865,44.486 L882.14,44.849 L880.461,45.269 L878.839,45.735 L877.278,46.242 L875.776,46.787 L874.333,47.367 L872.946,47.981 L871.604,48.627 L870.3,49.304 L869.027,50.014 L867.785,50.758 L866.606,51.515 L866.075,51.875 C866.075,51.875 866.075,51.875 866.075,51.875 C863.681,53.251 863.851,54.807 866.455,55.35 C869.059,55.893 873.111,55.219 875.505,53.843 L875.505,53.843" fill="#000000"/>
      </g>
      <path d="M956.222,61.497 L955.921,61.249 L955.178,60.729 L954.305,60.228 L953.319,59.763 L952.201,59.339 L950.897,58.965 L949.311,58.678 L947.352,58.507 L944.918,58.519 L941.996,58.81 L938.811,59.458 L935.778,60.405 L933.189,61.519 L931.452,62.475 L930.44,63.132 L929.636,63.725 L928.9,64.327 L928.22,64.94 L927.586,65.568 L927.253,65.929 L927.253,65.929 C927.24,65.945 927.227,65.962 927.215,65.979 L927.215,65.979 L926.51,66.717 L925.171,68.194 L923.926,69.64 L922.753,71.046 L921.704,72.41 L920.724,73.734 L919.813,75.019 L919.003,76.263 L918.264,77.468 L917.587,78.636 L916.972,79.768 L916.446,80.861 L915.98,81.918 L915.573,82.94 L915.222,83.928 L914.927,84.883 L914.702,85.803 L914.538,86.69 L914.427,87.546 L914.37,88.372 L914.365,89.168 L914.415,89.934 L914.518,90.673 L914.676,91.384 L914.899,92.066 L915.181,92.722 L915.521,93.352 L915.922,93.956 L916.385,94.534 L916.914,95.087 L917.512,95.613 L918.182,96.112 L918.929,96.583 L919.754,97.024 L920.665,97.432 L921.666,97.801 L922.753,98.133 L923.923,98.424 L925.173,98.671 L926.499,98.871 L927.893,99.022 L929.344,99.123 L930.843,99.174 L932.376,99.174 L933.935,99.121 L935.502,99.022 L937.66,98.814 L940.58,98.412 L943.594,97.865 L946.49,97.205 L949.257,96.461 L951.905,95.647 L954.435,94.774 L956.849,93.844 L959.164,92.867 L961.385,91.85 L963.512,90.792 L965.539,89.697 L967.478,88.57 L969.323,87.415 L971.072,86.232 L972.713,85.025 L974.251,83.797 L975.682,82.551 L977.018,81.294 L978.23,80.021 L979.342,78.74 L980.315,77.45 L980.984,76.45 L981.382,75.773 L981.721,75.122 L982.031,74.47 L982.293,73.819 L982.507,73.168 L982.671,72.519 L982.782,71.872 L982.852,71.227 L982.866,70.585 L982.822,69.947 L982.719,69.315 L982.554,68.689 L982.327,68.069 L982.03,67.459 L981.665,66.858 L981.232,66.268 L980.732,65.688 L980.152,65.123 L979.489,64.575 L978.755,64.042 L977.929,63.532 L977.026,63.04 L976.042,62.571 L974.967,62.128 L973.817,61.707 L972.577,61.317 L971.256,60.954 L969.859,60.616 L968.372,60.314 L966.815,60.038 L965.176,59.793 L963.461,59.582 L961.671,59.402 L959.805,59.254 L957.865,59.14 L955.851,59.058 L953.767,59.009 L952.657,58.994 L952.657,58.994 C949.448,58.732 945.302,59.766 943.396,61.305 C941.49,62.843 942.546,64.302 945.754,64.564 C945.754,64.564 945.754,64.564 945.754,64.564 L946.442,64.695 L947.838,64.97 L949.15,65.25 L950.383,65.536 L951.541,65.825 L952.627,66.117 L953.643,66.413 L954.593,66.709 L955.483,67.007 L956.305,67.31 L957.082,67.609 L957.801,67.911 L958.469,68.215 L959.098,68.516 L959.675,68.822 L960.22,69.126 L960.722,69.433 L961.182,69.745 L961.616,70.056 L962.005,70.374 L962.366,70.695 L962.694,71.02 L962.982,71.353 L963.232,71.694 L963.445,72.04 L963.627,72.393 L963.773,72.754 L963.882,73.122 L963.956,73.495 L963.996,73.877 L964.001,74.265 L963.961,74.66 L963.887,75.062 L963.78,75.468 L963.641,75.88 L963.471,76.296 L963.253,76.718 L963.02,77.115 L962.61,77.731 L961.905,78.595 L961.085,79.462 L960.129,80.322 L959.079,81.174 L957.923,82.006 L956.694,82.815 L955.405,83.598 L954.078,84.348 L952.722,85.062 L951.351,85.731 L949.98,86.351 L948.636,86.919 L947.335,87.43 L946.093,87.876 L944.933,88.255 L943.892,88.569 L942.99,88.811 L942.245,88.985 L941.687,89.096 L941.322,89.165 L940.957,89.216 L940.725,89.235 L940.737,89.232 L940.776,89.23 L940.823,89.235 L940.876,89.243 L940.921,89.252 L940.953,89.262 L940.961,89.271 L940.942,89.274 L940.892,89.269 L940.811,89.251 L940.699,89.216 L940.554,89.164 L940.381,89.088 L940.192,88.985 L939.99,88.851 L939.781,88.684 L939.572,88.482 L939.368,88.244 L939.174,87.97 L938.995,87.656 L938.835,87.304 L938.696,86.912 L938.573,86.483 L938.481,86.013 L938.42,85.501 L938.396,84.95 L938.409,84.356 L938.462,83.72 L938.558,83.042 L938.691,82.324 L938.855,81.565 L939.065,80.763 L939.324,79.917 L939.632,79.028 L939.99,78.096 L940.369,77.121 L940.801,76.102 L941.288,75.038 L941.822,73.929 L942.376,72.776 L942.985,71.577 L943.649,70.331 L944.319,69.04 L945.046,67.699 L945.812,66.301 L946.21,65.567 L946.172,65.617 L946.208,65.502 L946.33,65.231 L946.429,65.013 L946.496,64.849 L946.516,64.74 L946.347,64.756 L945.91,64.865 L945.111,65.05 L943.923,65.286 L942.626,65.427 L941.628,65.402 L941.139,65.274 L941.138,65.126 L941.51,65.011 L942.155,64.946 L942.966,64.952 L943.878,65.025 L944.86,65.156 L945.92,65.349 L946.497,65.485 C946.497,65.485 946.497,65.485 946.497,65.485 C948.286,66.264 951.914,66.003 954.599,64.901 C957.284,63.8 958.011,62.276 956.222,61.497 L956.222,61.497" fill="#000000"/>
      <g>
        <path d="M991.096,19.813 L991.058,22.689 L990.772,28.417 L990.08,34.131 L988.722,39.862 L987.201,45.529 L986.222,51.025 L985.946,56.319 L985.883,61.473 L985.923,66.493 L985.822,70.193 L985.671,72.629 L985.515,75.031 L985.312,77.402 L985.112,79.737 L984.89,82.036 L984.676,84.296 L984.461,86.515 L984.263,88.691 L984.088,90.82 L983.939,92.903 L983.812,94.938 L983.724,96.924 L983.679,98.856 L983.674,100.735 L983.725,102.558 L983.803,104.329 L983.963,106.035 L984.151,107.688 L984.391,109.28 L984.689,110.811 L985.03,112.282 L985.429,113.689 L985.883,115.033 L986.379,116.313 L986.94,117.527 L987.543,118.677 L988.209,119.76 L988.922,120.779 L989.707,121.728 L990.546,122.613 L991.462,123.426 L992.455,124.172 L993.533,124.849 L994.724,125.449 L996.032,125.974 L997.489,126.414 L999.12,126.756 L1000.933,126.986 L1002.946,127.074 L1004.673,127.04 L1005.904,126.957 L1007.028,126.827 L1008.148,126.654 L1009.247,126.444 L1010.318,126.2 L1011.352,125.926 L1012.342,125.622 L1013.291,125.295 L1014.198,124.949 L1015.066,124.584 L1015.896,124.2 L1016.338,123.988 L1016.338,123.988 C1018.05,123.398 1018.746,122.482 1017.892,121.942 C1017.039,121.402 1014.959,121.443 1013.247,122.033 L1012.927,122.084 L1012.259,122.189 L1011.664,122.266 L1011.143,122.314 L1010.696,122.336 L1010.326,122.333 L1010.031,122.313 L1009.807,122.279 L1009.643,122.232 L1009.532,122.177 L1009.458,122.12 L1009.521,122.065 L1009.555,121.992 L1009.417,121.874 L1009.198,121.726 L1008.913,121.52 L1008.569,121.245 L1008.186,120.891 L1007.794,120.45 L1007.393,119.926 L1007.01,119.316 L1006.649,118.62 L1006.307,117.844 L1006.005,116.984 L1005.721,116.048 L1005.48,115.033 L1005.259,113.946 L1005.079,112.784 L1004.914,111.554 L1004.782,110.255 L1004.669,108.889 L1004.569,107.461 L1004.494,105.968 L1004.426,104.415 L1004.369,102.803 L1004.342,101.129 L1004.291,99.406 L1004.266,97.624 L1004.236,95.789 L1004.214,93.902 L1004.194,91.965 L1004.177,89.978 L1004.178,87.941 L1004.19,85.855 L1004.212,83.724 L1004.248,81.546 L1004.313,79.321 L1004.395,77.051 L1004.522,74.736 L1004.666,72.379 L1004.872,69.976 L1005.098,67.533 L1005.582,63.782 L1006.423,58.635 L1007.166,53.375 L1007.677,48.03 L1007.443,42.683 L1006.603,37.325 L1005.839,31.869 L1005.63,26.257 L1005.695,20.539 L1005.776,17.654 C1005.808,16.067 1002.548,15.265 998.494,15.861 C994.44,16.457 991.128,18.227 991.096,19.813 L991.096,19.813" fill="#000000"/>
        <path d="M974.394,52.134 L974.813,52.446 L975.797,53.124 L976.893,53.772 L978.069,54.361 L979.374,54.889 L980.854,55.349 L982.552,55.73 L984.503,56.004 L986.691,56.153 L989.062,56.15 L991.504,55.997 L993.898,55.723 L996.91,55.229 L1000.555,54.423 L1003.759,53.547 L1006.303,52.766 L1008.269,52.149 L1009.608,51.731 L1010.185,51.553 L1009.719,51.654 L1008.809,51.811 L1007.945,51.88 L1006.936,51.892 L1005.963,51.803 L1005.24,51.598 L1004.684,51.424 L1004.684,51.424 C1009.8,51.972 1016.683,50.388 1020.057,47.885 C1023.432,45.382 1022.02,42.908 1016.904,42.36 C1016.904,42.36 1016.904,42.36 1016.904,42.36 L1015.556,42.101 L1013.237,41.82 L1010.655,41.773 L1008.023,41.932 L1005.524,42.246 L1002.967,42.732 L1000.008,43.465 L997.227,44.333 L995.171,45.116 L993.713,45.772 L992.807,46.254 L992.542,46.547 L992.701,46.733 L993.094,46.816 L993.74,46.829 L994.434,46.872 L995.055,46.963 L995.495,47.094 L995.699,47.227 L995.653,47.336 L995.391,47.38 L994.957,47.338 L994.399,47.194 L993.764,46.935 L993.024,46.522 L992.582,46.215 C990.327,44.594 984.427,44.605 979.405,46.239 C974.382,47.874 972.139,50.513 974.394,52.134 L974.394,52.134" fill="#000000"/>
      </g>
      <g>
        <path d="M376.118,57.347 L375.938,57.828 L375.576,59.108 L375.083,61.119 L374.521,63.879 L374.168,66.745 L374.149,69.564 L374.35,72.301 L374.592,74.962 L374.864,77.544 L375.154,80.035 L375.451,82.428 L375.745,84.702 L376.027,86.845 L376.286,88.835 L376.457,90.195 L376.557,91.019 L376.647,91.806 L376.725,92.527 L376.79,93.18 L376.84,93.757 L376.854,93.945 L376.854,93.945 C377.471,101.619 382.013,107.071 387.001,106.124 C391.989,105.176 395.533,98.187 394.917,90.513 C394.917,90.513 394.917,90.513 394.917,90.513 L394.87,89.936 L394.778,88.926 L394.677,87.92 L394.567,86.911 L394.45,85.904 L394.325,84.872 L394.132,83.341 L393.867,81.3 L393.595,79.236 L393.326,77.16 L393.068,75.092 L392.827,73.041 L392.612,71.033 L392.43,69.087 L392.285,67.23 L392.018,65.502 L391.533,63.897 L390.972,62.296 L390.578,61.125 L390.334,60.335 L390.228,59.797 C390.228,59.797 390.228,59.797 390.228,59.797 C390.668,53.803 387.866,48.395 383.969,47.718 C380.073,47.042 376.558,51.353 376.118,57.347 L376.118,57.347" fill="#000000"/>
        <path d="M373.085,32.166 L372.947,32.435 L372.823,33.154 L372.886,33.803 L373.046,34.303 L373.214,34.846 L373.253,35.257 L373.034,35.474 L372.818,35.523 L372.818,35.523 C373.915,37.605 378.803,35.56 383.734,30.956 C388.666,26.352 391.774,20.933 390.677,18.852 C390.677,18.852 390.677,18.852 390.677,18.852 L390.379,18.746 L389.965,18.692 L389.672,18.744 L389.516,18.892 L389.497,19.06 L389.431,19.286 L389.25,19.462 L389.116,19.405 C389.116,19.405 389.116,19.405 389.116,19.405 C389.145,16.725 385.58,17.41 381.153,20.934 C376.726,24.458 373.114,29.487 373.085,32.166 L373.085,32.166" fill="#000000"/>
      </g>
    </g>
  </g>
</svg>
